<svg width="32" height="38" viewBox="0 0 32 38" fill="none" xmlns="http://www.w3.org/2000/svg">
<path d="M20.8641 23.0508H11.1212C5.30145 23.0508 0.566406 27.7876 0.566406 33.6096V35.234C0.566406 35.5873 0.794552 35.9 1.13068 36.0081C1.3434 36.0755 6.43568 37.6707 15.9926 37.6707C25.5496 37.6707 30.6419 36.0755 30.8546 36.0081C31.1907 35.9 31.4189 35.5873 31.4189 35.234V33.6096C31.4189 27.7876 26.6838 23.0508 20.8641 23.0508Z" fill="white"/>
<path d="M15.9896 19.7862C21.0193 19.7862 24.9205 14.1104 24.9205 9.22735C24.9205 4.30126 20.9138 0.292969 15.9896 0.292969C11.0654 0.292969 7.05859 4.30126 7.05859 9.22735C7.05859 14.1104 10.9598 19.7862 15.9896 19.7862Z" fill="white"/>
</svg>
