<svg width="16" height="28" viewBox="0 0 16 28" fill="none" xmlns="http://www.w3.org/2000/svg">
<path d="M13 1.5C13 0.675 12.325 0 11.5 0H4.5C3.675 0 3 0.675 3 1.5V3H13V1.5Z" fill="#FF4342"/>
<path d="M14 4H2C0.895 4 0 4.895 0 6V26C0 27.105 0.895 28 2 28H14C15.105 28 16 27.105 16 26V6C16 4.895 15.105 4 14 4ZM12.335 15.005L7.75 22.51C7.69333 22.6029 7.60783 22.6747 7.50655 22.7146C7.40526 22.7544 7.29374 22.76 7.18897 22.7305C7.0842 22.7011 6.99194 22.6382 6.92623 22.5514C6.86052 22.4647 6.82497 22.3588 6.825 22.25V17.755H4.095C3.7155 17.765 3.4645 17.3115 3.665 16.995L8.25 9.49C8.49 9.0675 9.195 9.2585 9.175 9.75V14.245H11.905C12.2845 14.235 12.5355 14.6885 12.335 15.005Z" fill="#FF4342"/>
</svg>
