<svg width="36" height="26" viewBox="0 0 36 26" fill="none" xmlns="http://www.w3.org/2000/svg">
<path d="M12.2362 16.8824L15.1208 13.9977C15.4629 13.6555 15.4629 13.1012 15.1208 12.759L12.4466 10.0847L14.7325 4.3701C14.7869 4.23359 14.8061 4.08562 14.7885 3.93974C14.7708 3.79386 14.7168 3.65474 14.6314 3.53515C13.1523 1.47111 10.7554 0.238281 8.2188 0.238281C3.58714 0.238281 0.276367 3.85705 0.276367 9.0385C0.276367 15.4992 5.6656 18.7753 13.1069 25.2249C13.5118 25.576 13.7805 25.881 14.3123 25.7177C14.4552 25.6725 14.5841 25.5915 14.6867 25.4823C14.7893 25.3731 14.8622 25.2394 14.8983 25.094L15.8882 21.1358C15.925 20.9891 15.9231 20.8354 15.8828 20.6896C15.8424 20.5439 15.765 20.4111 15.658 20.3043L12.2362 16.8824Z" fill="white"/>
<path d="M26.7097 16.5964C27.1661 17.0329 27.3943 17.5449 27.3943 18.1323C27.3943 18.7157 27.1661 19.2277 26.7097 19.6682C26.2573 20.1048 25.7135 20.3231 25.0785 20.3231C24.4435 20.3231 23.8978 20.1048 23.4414 19.6682C22.9889 19.2277 22.7627 18.7157 22.7627 18.1323C22.7627 17.5449 22.9889 17.0329 23.4414 16.5964C23.8978 16.1558 24.4435 15.9355 25.0785 15.9355C25.7135 15.9355 26.2573 16.1558 26.7097 16.5964Z" fill="white"/>
<path d="M30.7464 15.834L24.6328 25.5534H27.2762L33.383 15.834H30.7464Z" fill="white"/>
<path d="M31.0684 23.268C31.0684 23.8511 31.2964 24.3628 31.7526 24.8031C32.2088 25.2394 32.7522 25.4576 33.383 25.4576C34.0176 25.4576 34.5611 25.2394 35.0133 24.8031C35.4695 24.3628 35.6976 23.8511 35.6976 23.268C35.6976 22.6809 35.4695 22.1672 35.0133 21.7269C34.5611 21.2866 34.0176 21.0664 33.383 21.0664C32.7522 21.0664 32.2088 21.2866 31.7526 21.7269C31.2964 22.1672 31.0684 22.6809 31.0684 23.268Z" fill="white"/>
<path fill-rule="evenodd" clip-rule="evenodd" d="M18.7937 1.51281C20.0741 0.678794 21.5611 0.238281 23.0931 0.238281C27.7248 0.238281 31.0356 3.85705 31.0356 9.0385C31.0356 11.7966 29.965 14.0009 28.4871 15.9028C28.3479 15.72 28.1893 15.5436 28.0115 15.3735C27.1981 14.5815 26.2207 14.1855 25.0791 14.1855C23.9376 14.1855 22.9565 14.5815 22.1361 15.3735C21.3227 16.1583 20.916 17.0787 20.916 18.1346C20.916 19.1834 21.3227 20.1038 22.1361 20.8958C22.3688 21.1184 22.6145 21.3094 22.873 21.4689C21.8663 22.3578 20.77 23.3061 19.5507 24.3609L19.5387 24.3713C19.1606 24.6991 18.8 24.9235 18.3127 24.6254C17.9867 24.4251 17.8277 24.0369 17.9208 23.6664L18.807 20.1178L16.1911 17.5017C15.8489 17.1595 15.8489 16.6052 16.1911 16.263L19.0758 13.3783L15.7694 10.0719C15.6482 9.95074 15.5651 9.79668 15.5306 9.62879C15.4961 9.46091 15.5116 9.28659 15.5753 9.12744L18.4583 1.92184C18.5254 1.75427 18.6425 1.61144 18.7937 1.51281Z" fill="white"/>
</svg>
