<svg width="45" height="18" viewBox="0 0 45 18" fill="none" xmlns="http://www.w3.org/2000/svg">
<path d="M2.36623 16.3186C1.91688 15.8692 1.5549 15.3075 1.31774 14.646C1.08058 13.9845 0.930799 13.2855 0.893353 12.5241C0.830943 11.2384 1.01818 10.0776 1.46753 9.00415C1.9044 7.94318 2.55346 6.96959 3.4272 6.09585C4.70036 4.82269 6.36046 3.76172 8.4075 2.93791C10.4545 2.1141 12.7138 1.50248 15.1727 1.11554C17.6838 0.726116 20.2207 0.525841 22.7618 0.516408C25.2946 0.524843 27.8232 0.725128 30.3258 1.11554C32.7723 1.51497 35.0191 2.1141 37.0287 2.92543C39.0507 3.74924 40.7108 4.81021 42.009 6.10833C42.8577 6.95711 43.5193 7.91822 43.9686 8.9667C44.4305 10.0277 44.6551 11.201 44.6177 12.4866C44.6052 14.0718 44.1184 15.3325 43.1948 16.2562C42.8453 16.6057 42.4209 16.8803 41.959 17.0425C41.4847 17.2173 40.973 17.2797 40.4238 17.1798L33.4463 15.9941C32.9096 15.9067 32.4603 15.7819 32.0733 15.6196C31.6989 15.4698 31.3743 15.2701 31.1372 15.0329C30.8376 14.7334 30.6254 14.3464 30.5131 13.8846C30.3883 13.4352 30.3258 12.8985 30.3258 12.2994L30.2884 10.3647C30.2884 10.0901 30.1885 9.8654 29.9888 9.66569C29.889 9.56584 29.7891 9.49095 29.6643 9.41606C29.527 9.35365 29.4147 9.3162 29.3148 9.26627C28.6782 9.07904 27.7546 8.92926 26.5563 8.8294C25.3455 8.74203 24.0849 8.67962 22.7742 8.66713C21.4387 8.67962 20.178 8.71706 18.9548 8.81692C17.7565 8.91677 16.8453 9.07904 16.1963 9.27875C16.1089 9.3162 15.9965 9.35364 15.8717 9.40357C15.7344 9.46598 15.6221 9.55336 15.5097 9.66569C15.2975 9.87789 15.2102 10.115 15.2102 10.3896L15.1977 12.2744C15.1977 12.8985 15.1353 13.4352 14.998 13.8721C14.8856 14.334 14.6859 14.7084 14.3739 15.0205C14.1367 15.2576 13.8372 15.4573 13.4502 15.6196C13.0633 15.7819 12.6139 15.9067 12.0897 16.0065L5.02489 17.2048C4.47568 17.3047 3.98889 17.2672 3.53954 17.0925C3.10267 16.9052 2.71572 16.6681 2.36623 16.3186Z" fill="white"/>
</svg>
