<svg width="42" height="32" viewBox="0 0 42 32" fill="none" xmlns="http://www.w3.org/2000/svg">
<path d="M40.7301 9.5285H35.8633L34.569 6.16318C33.2228 2.69431 29.8575 0.468018 26.1298 0.468018H15.8785C12.1507 0.468018 8.83719 2.69431 7.43929 6.16318L6.09316 9.5285H1.22639C0.708644 9.5285 0.242676 9.94269 0.242676 10.5122C0.242676 10.564 0.242676 10.6675 0.29445 10.7193L0.760418 12.6867C0.863966 13.1009 1.27816 13.4116 1.69235 13.4116H3.4009C2.26187 14.3953 1.5888 15.7932 1.5888 17.2946V21.1777C1.5888 22.4203 2.05477 23.6111 2.88316 24.5948V28.9438C2.88316 30.3935 4.02219 31.5325 5.47187 31.5325H8.06058C9.51025 31.5325 10.6493 30.3935 10.6493 28.9438V26.3551H31.359V28.9438C31.359 30.3935 32.498 31.5325 33.9477 31.5325H36.5364C37.9861 31.5325 39.1251 30.3935 39.1251 28.9438V24.543C39.9535 23.6111 40.4194 22.4203 40.4194 21.1259V17.2429C40.4194 15.7414 39.7464 14.3435 38.6073 13.3598H40.2123C40.6783 13.3598 41.0407 13.0491 41.1443 12.635L41.6103 10.6675C41.7138 10.1498 41.4032 9.63205 40.8854 9.47673C40.8854 9.5285 40.8336 9.5285 40.7301 9.5285ZM12.2543 8.07882C12.8238 6.57737 14.2735 5.64544 15.8785 5.64544H26.1298C27.7348 5.64544 29.1844 6.62915 29.754 8.07882L31.359 12.1172H10.6493L12.2543 8.07882ZM8.06058 21.1777C6.71445 21.2812 5.57542 20.2458 5.47187 18.8996V18.589C5.36832 17.2429 6.4038 16.1038 7.74993 16.0003H8.06058C9.6138 16.0003 11.9436 18.3301 11.9436 19.8833C11.9436 21.4366 9.6138 21.1777 8.06058 21.1777ZM33.9477 21.1777C32.3944 21.1777 30.0646 21.4366 30.0646 19.8833C30.0646 18.3301 32.3944 16.0003 33.9477 16.0003C35.2938 15.8967 36.4328 16.9322 36.5364 18.2783V18.589C36.6399 19.9351 35.6044 21.0741 34.2583 21.1777H33.9477Z" fill="white"/>
</svg>
