<svg width="44" height="43" viewBox="0 0 44 43" fill="none" xmlns="http://www.w3.org/2000/svg">
<path fill-rule="evenodd" clip-rule="evenodd" d="M26.3162 3.77896C24.4103 3.17409 22.3817 2.84766 20.2783 2.84766C9.25082 2.84766 0.27832 11.8202 0.27832 22.8477C0.27832 26.6927 1.35582 30.3852 3.39832 33.5677L0.36832 41.1327C0.277469 41.3602 0.255335 41.6093 0.304658 41.8493C0.353982 42.0892 0.472598 42.3094 0.64582 42.4827C0.880045 42.7164 1.19743 42.8477 1.52832 42.8477C1.68582 42.8477 1.84082 42.8177 1.99332 42.7577L9.55832 39.7277C12.7408 41.7702 16.4333 42.8477 20.2783 42.8477C31.3058 42.8477 40.2783 33.8752 40.2783 22.8477C40.2783 21.3777 40.1189 19.9443 39.8164 18.5637C38.6576 18.9875 37.4061 19.2188 36.1006 19.2188C30.1258 19.2188 25.2822 14.3752 25.2822 8.40039C25.2822 6.74707 25.6531 5.18038 26.3162 3.77896Z" fill="white"/>
<circle cx="36.1019" cy="8.40048" r="7.48275" fill="white"/>
</svg>
