<svg width="36" height="36" viewBox="0 0 36 36" fill="none" xmlns="http://www.w3.org/2000/svg">
<path opacity="0.9" fill-rule="evenodd" clip-rule="evenodd" d="M31.3117 1.24675C30.7144 0.649501 29.7461 0.649501 29.1488 1.24675L17.9981 12.3975L6.84925 1.2487C6.252 0.651455 5.28367 0.651455 4.68643 1.2487L1.24678 4.68835C0.649531 5.2856 0.649532 6.25393 1.24678 6.85117L12.3956 18L1.24676 29.1488C0.649517 29.7461 0.649516 30.7144 1.24676 31.3116L4.68641 34.7513C5.28366 35.3485 6.25199 35.3485 6.84923 34.7513L17.9981 23.6025L29.1488 34.7532C29.7461 35.3505 30.7144 35.3505 31.3117 34.7532L34.7513 31.3136C35.3486 30.7163 35.3486 29.748 34.7513 29.1508L23.6005 18L34.7513 6.84922C35.3485 6.25197 35.3485 5.28364 34.7513 4.6864L31.3117 1.24675Z" fill="white"/>
</svg>
