<svg width="40" height="32" viewBox="0 0 40 32" fill="none" xmlns="http://www.w3.org/2000/svg">
<path d="M7.43197 30.8023C7.43197 31.214 7.76985 31.5509 8.19995 31.5509H31.8073C32.2296 31.5509 32.5752 31.214 32.5752 30.8023V28.0631H7.43197V30.8023ZM38.8725 5.70731C38.5884 5.52021 38.2197 5.53506 37.951 5.73722L27.7985 13.6052L20.6718 0.811317C20.4106 0.324709 19.5966 0.332345 19.3278 0.811317L12.201 13.6052L2.04855 5.73722C1.77975 5.52764 1.41113 5.52021 1.13467 5.70731C0.85053 5.8945 0.735309 6.23888 0.835189 6.55325L7.14255 25.4641H32.8643L39.1643 6.55325C39.2642 6.23888 39.149 5.8945 38.8725 5.70731Z" fill="white"/>
</svg>
