<svg width="28" height="20" viewBox="0 0 28 20" fill="none" xmlns="http://www.w3.org/2000/svg">
<path d="M2.33048 16.8889C1.89327 16.8889 1.62607 17.369 1.85654 17.7406L2.57991 18.9067C2.74944 19.18 3.0482 19.3462 3.36981 19.3462H19.0308C19.3524 19.3462 19.6512 19.18 19.8207 18.9067L20.5441 17.7406C20.7746 17.369 20.5074 16.8889 20.0702 16.8889H2.33048ZM19.1439 15.1602C19.4875 15.1602 19.8049 14.9717 19.9559 14.6631C20.3577 13.8416 20.6998 12.9694 20.9786 12.0573L24.1781 11.0615C26.1818 10.438 27.5279 8.62801 27.5279 6.55782C27.5279 3.9535 25.3774 1.83478 22.7341 1.83478C22.3215 1.83478 21.9139 1.88731 21.5198 1.98884C21.4541 1.62845 21.3787 1.26984 21.2936 0.913389L21.2797 0.855145C21.1797 0.436872 20.8057 0.141846 20.3757 0.141846H2.02498C1.59491 0.141846 1.22099 0.436871 1.12094 0.855143L1.10701 0.913389C0.724023 2.51468 0.529785 4.19199 0.529785 5.89888C0.529785 9.08708 1.20042 12.1188 2.4447 14.6631C2.59562 14.9717 2.9131 15.1602 3.25663 15.1602H19.1439ZM22.734 3.83729C24.2567 3.83729 25.4954 5.05772 25.4954 6.55788C25.4954 7.75041 24.7199 8.79295 23.5658 9.15212L21.5266 9.78683C21.7532 8.53403 21.8708 7.23024 21.8708 5.89888C21.8708 5.26143 21.8436 4.62806 21.7898 4.00123C22.0924 3.89273 22.4119 3.83725 22.734 3.83729Z" fill="#F7980B"/>
</svg>
