<svg width="28" height="22" viewBox="0 0 28 22" fill="none" xmlns="http://www.w3.org/2000/svg">
<path fill-rule="evenodd" clip-rule="evenodd" d="M27.9994 15.7087L27.9984 19.4317C27.998 20.0838 27.7388 20.7091 27.2777 21.1702C26.8166 21.6314 26.1913 21.8906 25.5392 21.8909L2.46285 21.8909C1.81085 21.8902 1.18577 21.6309 0.724739 21.1698C0.263709 20.7088 0.00438853 20.0837 0.00367785 19.4317L0.00268555 15.7087C0.0126333 15.1738 0.192852 14.6561 0.517159 14.2306C0.841466 13.8052 1.29297 13.4942 1.80608 13.3429C2.3031 13.1845 2.73687 12.8721 3.04468 12.451C3.35248 12.0298 3.51838 11.5217 3.51838 11C3.51838 10.4783 3.35248 9.9702 3.04468 9.54903C2.73687 9.12786 2.3031 8.81549 1.80608 8.65708C1.29306 8.50626 0.841545 8.1957 0.517204 7.77057C0.192862 7.34545 0.0126155 6.82793 0.00268555 6.29329L0.00367916 2.57026C0.00401824 1.91815 0.263219 1.29284 0.72433 0.831733C1.18544 0.370622 1.81074 0.111423 2.46285 0.111084H25.5392C26.1911 0.112166 26.816 0.371604 27.2769 0.832554C27.7379 1.2935 27.9973 1.91838 27.9984 2.57026L27.9994 6.29329C27.9894 6.82815 27.8092 7.34591 27.4849 7.77135C27.1606 8.1968 26.7091 8.50776 26.196 8.65907C25.6993 8.81762 25.2659 9.12994 24.9583 9.55092C24.6507 9.9719 24.4848 10.4797 24.4847 11.0011C24.4846 11.5225 24.6502 12.0304 24.9576 12.4515C25.2651 12.8726 25.6984 13.1851 26.195 13.3439C26.7083 13.4946 27.1602 13.8052 27.4847 14.2306C27.8093 14.6559 27.9896 15.1738 27.9994 15.7087ZM8.99545 7.55046C9.11444 7.88502 9.32997 8.17678 9.61478 8.38885C9.99669 8.67322 10.4759 8.79423 10.9471 8.72526C11.4182 8.65629 11.8426 8.40299 12.127 8.02107C12.3391 7.73627 12.4619 7.39497 12.48 7.04034C12.4981 6.68572 12.4107 6.33369 12.2287 6.02877C12.0467 5.72386 11.7784 5.47975 11.4577 5.32732C11.137 5.17489 10.7783 5.12098 10.427 5.17242C10.0756 5.22385 9.74741 5.37832 9.48385 5.61628C9.2203 5.85424 9.03322 6.16501 8.94629 6.50929C8.85935 6.85357 8.87646 7.2159 8.99545 7.55046ZM10.9786 16.653C11.3319 16.6012 11.6502 16.4113 11.8635 16.1248L18.2969 7.48479C18.5102 7.19835 18.601 6.83892 18.5492 6.48557C18.4975 6.13222 18.3075 5.81389 18.0211 5.60061C17.7346 5.38733 17.3752 5.29657 17.0219 5.3483C16.6685 5.40003 16.3502 5.59 16.1369 5.87644L9.70351 14.5165C9.49023 14.8029 9.39947 15.1624 9.4512 15.5157C9.50293 15.8691 9.6929 16.1874 9.97934 16.4007C10.2658 16.6139 10.6252 16.7047 10.9786 16.653ZM16.2423 16.491C15.9574 16.2789 15.7419 15.9872 15.6229 15.6526C15.5039 15.3181 15.4868 14.9557 15.5738 14.6115C15.6607 14.2672 15.8478 13.9564 16.1113 13.7184C16.3749 13.4805 16.7031 13.326 17.0544 13.2746C17.4058 13.2231 17.7645 13.277 18.0852 13.4295C18.4059 13.5819 18.6742 13.826 18.8562 14.1309C19.0381 14.4358 19.1256 14.7879 19.1075 15.1425C19.0894 15.4971 18.9666 15.8384 18.7545 16.1232C18.4701 16.5051 18.0457 16.7584 17.5745 16.8274C17.1034 16.8964 16.6242 16.7754 16.2423 16.491Z" fill="white"/>
</svg>
