<svg width="24" height="25" viewBox="0 0 24 25" fill="none" xmlns="http://www.w3.org/2000/svg">
<path d="M21.3268 1.86538H18.5288V0.932692C18.5288 0.685327 18.4305 0.448093 18.2556 0.273179C18.0807 0.0982655 17.8434 0 17.5961 0C17.3487 0 17.1115 0.0982655 16.9366 0.273179C16.7617 0.448093 16.6634 0.685327 16.6634 0.932692V1.86538H7.33646V0.932692C7.33646 0.685327 7.2382 0.448093 7.06328 0.273179C6.88837 0.0982655 6.65114 0 6.40377 0C6.15641 0 5.91917 0.0982655 5.74426 0.273179C5.56934 0.448093 5.47108 0.685327 5.47108 0.932692V1.86538H2.673C2.17827 1.86538 1.7038 2.06192 1.35398 2.41174C1.00415 2.76157 0.807617 3.23604 0.807617 3.73077V22.3846C0.807617 22.8793 1.00415 23.3538 1.35398 23.7036C1.7038 24.0535 2.17827 24.25 2.673 24.25H21.3268C21.8216 24.25 22.296 24.0535 22.6459 23.7036C22.9957 23.3538 23.1922 22.8793 23.1922 22.3846V3.73077C23.1922 3.23604 22.9957 2.76157 22.6459 2.41174C22.296 2.06192 21.8216 1.86538 21.3268 1.86538ZM16.8378 13.7339L11.3937 18.8637C11.309 18.9467 11.2087 19.0122 11.0985 19.0562C10.9884 19.1002 10.8706 19.122 10.752 19.1202C10.5132 19.121 10.2835 19.0291 10.1112 18.8637L7.16112 16.0656C7.06773 15.9825 6.99199 15.8815 6.93841 15.7686C6.88483 15.6556 6.8545 15.5331 6.84923 15.4082C6.84395 15.2833 6.86383 15.1586 6.90769 15.0416C6.95155 14.9245 7.01849 14.8175 7.10454 14.7268C7.19058 14.6361 7.29398 14.5637 7.40858 14.5137C7.52318 14.4638 7.64665 14.4374 7.77165 14.4362C7.89664 14.4349 8.02062 14.4588 8.13621 14.5064C8.2518 14.554 8.35664 14.6243 8.4445 14.7132L10.752 16.905L15.5553 12.3815C15.6434 12.2959 15.7478 12.2288 15.8622 12.1841C15.9766 12.1394 16.0988 12.1181 16.2216 12.1213C16.3443 12.1245 16.4652 12.1522 16.5772 12.2028C16.6891 12.2534 16.7897 12.3259 16.8732 12.416C17.0432 12.5955 17.1349 12.8352 17.1283 13.0823C17.1216 13.3294 17.0172 13.5638 16.8378 13.7339ZM21.3268 7.46154H2.673V3.73077H5.47108V4.66346C5.47108 4.91083 5.56934 5.14806 5.74426 5.32297C5.91917 5.49789 6.15641 5.59615 6.40377 5.59615C6.65114 5.59615 6.88837 5.49789 7.06328 5.32297C7.2382 5.14806 7.33646 4.91083 7.33646 4.66346V3.73077H16.6634V4.66346C16.6634 4.91083 16.7617 5.14806 16.9366 5.32297C17.1115 5.49789 17.3487 5.59615 17.5961 5.59615C17.8434 5.59615 18.0807 5.49789 18.2556 5.32297C18.4305 5.14806 18.5288 4.91083 18.5288 4.66346V3.73077H21.3268V7.46154Z" fill="white"/>
</svg>
