<svg width="26" height="30" viewBox="0 0 26 30" fill="none" xmlns="http://www.w3.org/2000/svg">
<path d="M25.2335 5.28022L23.7239 2.32152C23.408 1.70244 22.6501 1.45648 22.0308 1.77242C21.4117 2.08831 21.1659 2.84635 21.4817 3.46549L22.5101 5.48113C20.8642 6.02764 19.6732 7.58074 19.6732 9.40782V12.4943C19.6732 13.0156 20.0958 13.4383 20.6172 13.4383H22.8538V16.6003C22.8538 18.0039 21.7119 19.1458 20.3083 19.1458H18.7761V2.94026C18.7761 1.66149 17.7358 0.621094 16.457 0.621094H5.32685C3.71556 0.621094 2.40466 1.93194 2.40466 3.54323V24.7785C1.38729 25.0238 0.629028 25.9411 0.629028 27.0327V28.4351C0.629028 28.9564 1.05164 29.379 1.57293 29.379H19.6079C20.1292 29.379 20.5519 28.9564 20.5519 28.4351V27.0327C20.5519 25.9411 19.7935 25.0238 18.7761 24.7785V21.6628H20.3083C23.0998 21.6628 25.371 19.3917 25.371 16.6001V5.85217C25.3709 5.65334 25.3238 5.45734 25.2335 5.28022ZM14.7853 10.0185H6.3955C5.96104 10.0185 5.60887 9.66636 5.60887 9.2319V4.64614C5.60887 4.21168 5.96104 3.85951 6.3955 3.85951H14.7853C15.2198 3.85951 15.572 4.21168 15.572 4.64614V9.23196C15.572 9.66636 15.2198 10.0185 14.7853 10.0185Z" fill="white"/>
</svg>
