<svg width="26" height="28" viewBox="0 0 26 28" fill="none" xmlns="http://www.w3.org/2000/svg">
<path d="M11.4727 15.6901H2.69318C1.99754 15.6901 1.42833 16.2795 1.42833 17V26.6901C1.42833 27.4106 1.99754 28 2.69318 28H11.6203C11.9179 28 11.9179 27.6689 11.9179 27.6689V16.1352C11.9179 16.1352 11.9178 15.6901 11.4727 15.6901ZM23.2788 15.6901H14.5082C13.974 15.6901 14.054 16.2662 14.054 16.2662V27.6796C14.054 27.6796 14.0497 27.9997 14.371 27.9997H23.2786C23.9743 27.9997 24.5435 27.4103 24.5435 26.6898V17C24.5437 16.2795 23.9744 15.6901 23.2788 15.6901ZM11.9178 7.81149C11.9178 7.81149 11.9178 7.36759 11.4943 7.36759H1.26485C0.569212 7.36759 0 7.95713 0 8.67752V12.7667C0 13.4872 0.569212 14.0766 1.26485 14.0766H11.5289C11.9178 14.0766 11.9178 13.7273 11.9178 13.7273V7.81149ZM24.707 7.36759H14.445C14.0542 7.36759 14.0542 7.75327 14.0542 7.75327V13.7354C14.0542 13.7354 14.0542 14.0766 14.5293 14.0766H24.707C25.4027 14.0766 25.9719 13.4872 25.9719 12.7667V8.67752C25.9719 7.95713 25.4027 7.36759 24.707 7.36759ZM7.61576 6.39839C7.03705 6.39839 6.50848 6.35086 6.04496 6.25704C4.86765 6.01882 4.05848 5.55516 3.57119 4.83973C3.13458 4.19856 3.00096 3.40811 3.17393 2.49025C3.47692 0.884359 4.51822 0 6.10578 0C6.44176 0 6.81073 0.0401808 7.20255 0.119493C8.19925 0.32116 9.47406 0.913087 10.6128 1.70286C12.5447 3.04296 12.6402 3.87606 12.544 4.3862C12.4026 5.13579 11.7261 5.67141 10.4759 6.02378C9.63127 6.26181 8.58877 6.39839 7.61576 6.39839ZM6.10587 2.09961C5.49105 2.09961 5.27975 2.27752 5.16373 2.89283C5.06882 3.3959 5.18852 3.57161 5.22777 3.62935C5.39217 3.87081 5.82039 4.0722 6.43365 4.19617C6.76456 4.26317 7.17343 4.29858 7.61566 4.29858C8.58813 4.29858 9.44485 4.14597 10.0133 3.97904C10.0547 3.96692 10.1189 3.91624 10.0501 3.87377C9.3069 3.24672 7.94722 2.40942 6.81386 2.18007C6.54985 2.12681 6.31155 2.09961 6.10587 2.09961ZM18.3854 6.39839C17.4124 6.39839 16.3698 6.26181 15.5252 6.02378C14.2749 5.6715 13.5985 5.13579 13.4571 4.38629C13.361 3.87616 13.4563 3.04305 15.3884 1.70296C16.527 0.913183 17.8018 0.321255 18.7986 0.119588C19.1905 0.0402762 19.5594 9.54413e-05 19.8951 9.54413e-05C21.4831 9.54413e-05 22.5243 0.88455 22.827 2.49045C23.0001 3.40821 22.8666 4.19865 22.4299 4.83983C21.9426 5.55535 21.1336 6.01891 19.956 6.25713C19.4926 6.35076 18.9641 6.39839 18.3854 6.39839ZM15.9672 3.86079C15.9014 3.9004 15.9332 3.96291 15.9674 3.97313C16.5356 4.14234 17.4014 4.29868 18.3853 4.29868C18.8277 4.29868 19.2364 4.26327 19.5674 4.19627C20.1805 4.0722 20.6089 3.87091 20.7732 3.62944C20.8127 3.5717 20.9325 3.39599 20.8373 2.89292C20.7214 2.27761 20.51 2.09971 19.8951 2.09971C19.6895 2.09971 19.4513 2.12681 19.1872 2.18026C18.0537 2.40951 16.7104 3.23365 15.9672 3.86079Z" fill="white"/>
</svg>
