<svg width="26" height="22" viewBox="0 0 26 22" fill="none" xmlns="http://www.w3.org/2000/svg">
<path fill-rule="evenodd" clip-rule="evenodd" d="M0.756412 7.32896C0.672824 5.5237 1.40688 3.83795 2.93817 2.31847C4.22406 1.04265 6.04917 0.310059 7.94525 0.310059H7.95086C9.86042 0.310059 11.692 1.09935 13 2.45523C14.3077 1.09927 16.1396 0.310059 18.0495 0.310059H18.0546C19.9505 0.310059 21.7757 1.04187 23.0615 2.31847C24.5928 3.83787 25.3268 5.5237 25.2437 7.32896C25.0381 11.7671 20.0185 15.9089 15.985 19.2372C15.0552 20.0051 14.1767 20.7291 13.4663 21.3731C13.2033 21.6108 12.7966 21.6109 12.5336 21.3731C11.8232 20.7291 10.9449 20.0051 10.0147 19.2372C5.98149 15.9089 0.961708 11.7671 0.756412 7.32896Z" fill="#FF2E9F"/>
</svg>
