<svg width="19" height="19" viewBox="0 0 19 19" fill="none" xmlns="http://www.w3.org/2000/svg">
<path d="M0.432959 15.325L0.0789587 17.8C0.0570812 17.9536 0.0712541 18.1102 0.120356 18.2574C0.169457 18.4046 0.25214 18.5384 0.361863 18.6481C0.471586 18.7578 0.605337 18.8405 0.752535 18.8896C0.899733 18.9387 1.05634 18.9529 1.20996 18.931L3.68496 18.577C4.05996 18.524 4.99996 16 4.99996 16C4.99996 16 5.47196 16.405 5.66496 16.466C6.07696 16.596 6.47796 16.192 6.61296 15.782L6.99996 14.01C6.99996 14.01 7.57696 14.302 7.78596 14.345C8.05196 14.4 8.30996 14.236 8.49296 14.052C8.60289 13.9424 8.68546 13.8085 8.73396 13.661L8.99996 12.01C8.99996 12.01 9.67496 12.197 9.90596 12.224C10.169 12.254 10.425 12.12 10.613 11.931L11.751 10.794C12.7143 11.1062 13.745 11.1464 14.7297 10.9103C15.7145 10.6743 16.6149 10.171 17.332 9.456C18.3616 8.42365 18.9399 7.02508 18.9399 5.567C18.9399 4.10892 18.3616 2.71035 17.332 1.678C16.2996 0.648316 14.901 0.0700684 13.443 0.0700684C11.9849 0.0700684 10.5863 0.648316 9.55396 1.678C8.83877 2.39493 8.33538 3.29539 8.0993 4.28014C7.86321 5.2649 7.90358 6.29572 8.21596 7.259L0.714959 14.759C0.561852 14.9119 0.46284 15.1107 0.432959 15.325ZM15.504 3.506C16.0495 4.05317 16.3559 4.79432 16.3559 5.567C16.3559 6.33968 16.0495 7.08083 15.504 7.628L11.382 3.506C11.9291 2.96044 12.6703 2.65409 13.443 2.65409C14.2156 2.65409 14.9568 2.96044 15.504 3.506Z" fill="#FF4342" fill-opacity="0.8"/>
</svg>
