<svg width="24" height="16" viewBox="0 0 24 16" fill="none" xmlns="http://www.w3.org/2000/svg">
<path d="M7.3 5.2001C8.1 5.6001 9 6.5001 9 8.0001C9 9.5001 8.1 10.4001 7.3 10.8001C6.9 9.4001 6.9 6.6001 7.3 5.2001ZM6.5 3.0001C4.5 3.0001 4.5 13.0001 6.5 13.0001C8.5 13.0001 11 11.1001 11 8.0001C11 4.9001 8.5 3.0001 6.5 3.0001ZM16.7 5.2001C17 6.6001 17 9.4001 16.7 10.8001C15.9 10.4001 15 9.5001 15 8.0001C15 6.5001 15.9 5.6001 16.7 5.2001ZM17.5 3.0001C15.5 3.0001 13 4.9001 13 8.0001C13 11.1001 15.5 13.0001 17.5 13.0001C19.5 13.0001 19.5 3.0001 17.5 3.0001ZM4.9 2.2001L2.5 0.600098L1.4 2.3001L4 4.0001C4.2 3.3001 4.5 2.6001 4.9 2.2001ZM20 4.0001L22.6 2.3001L21.5 0.600098L19.1 2.2001C19.4 2.6001 19.8 3.2001 20 4.0001ZM4 12.0001L1.4 13.7001L2.5 15.4001L4.9 13.8001C4.6 13.4001 4.2 12.8001 4 12.0001ZM20.5 7.0001V9.0001H24V7.0001H20.5ZM19.1 13.8001L21.5 15.4001L22.6 13.7001L20 12.0001C19.8 12.7001 19.5 13.4001 19.1 13.8001ZM3.5 8.0001V7.0001H0V9.0001H3.5V8.0001Z" fill="white"/>
</svg>
