<svg width="30" height="28" viewBox="0 0 30 28" fill="none" xmlns="http://www.w3.org/2000/svg">
<path fill-rule="evenodd" clip-rule="evenodd" d="M18.6171 6.09534L14.9914 0L11.3656 6.09557C9.47949 6.96187 7.9566 8.48313 7.0882 10.3681L0.975586 14.0041L7.08933 17.6407C7.95824 19.5252 9.48141 21.0459 11.3677 21.9117L14.9914 28.0038L18.6151 21.9119C20.4986 21.0476 22.0202 19.5301 22.8899 17.6495L22.8925 17.6522L29.0255 14.0041L22.8925 10.3559L22.8904 10.358C22.0212 8.47756 20.5001 6.96006 18.6171 6.09534ZM15 18C17.2091 18 19 16.2091 19 14C19 11.7909 17.2091 10 15 10C12.7909 10 11 11.7909 11 14C11 16.2091 12.7909 18 15 18Z" fill="white"/>
</svg>
