<svg width="30" height="46" viewBox="0 0 30 46" fill="none" xmlns="http://www.w3.org/2000/svg">
<path fill-rule="evenodd" clip-rule="evenodd" d="M13.1395 0.370362C6.02 1.4546 1.32484 7.98256 2.58494 15.0449C2.97484 17.2301 2.77592 19.6599 2.03139 21.8075C1.81082 22.4438 1.60865 23.0276 1.58213 23.1051C1.54442 23.2153 1.67838 23.2883 2.19792 23.4404C5.63479 24.4467 9.57856 23.3928 12.6069 20.6588L13.2255 20.1002L12.7314 19.9403C4.68204 17.3374 6.23714 5.63344 14.6731 5.32726C23.4801 5.00755 25.6337 17.2273 17.2484 19.9395L16.7564 20.0987L17.2935 20.592C20.1844 23.2472 24.2837 24.419 27.5285 23.5178C28.4274 23.2681 28.4033 23.3514 27.9462 22.0745C27.1934 19.9715 26.9745 17.1843 27.3909 15.0004C28.9815 6.65691 21.6022 -0.918358 13.1395 0.370362Z" fill="white"/>
<path d="M6.65663 45.0534C0.961447 38.9089 -0.881213 31.8124 0.532524 25.8641C0.65756 25.3379 0.802713 24.9075 0.855037 24.9075C0.907451 24.9075 1.21851 24.9852 1.54634 25.0802C2.52579 25.3638 3.61052 25.5362 4.77112 25.5924L5.86613 25.6455C9.39059 25.446 11.9615 24.1065 14.9935 21.4492C17.9314 24.1065 20.8252 25.5158 24.189 25.6921L25.4196 25.6438C26.685 25.5941 27.5777 25.4467 28.573 25.123C29.251 24.9025 29.1607 24.8356 29.4313 25.7587C31.0932 31.4266 29.1269 38.7421 23.2831 45.0979L22.649 45.7875H14.993H7.33702L6.65663 45.0534Z" fill="white"/>
<path d="M10.9892 16.7211C7.8978 13.672 9.31727 8.47058 13.5475 7.34677C17.0829 6.40751 20.6548 9.13667 20.6548 12.777C20.6548 17.7557 14.5596 20.2428 10.9892 16.7211Z" fill="white"/>
</svg>
