<svg width="36" height="44" viewBox="0 0 36 44" fill="none" xmlns="http://www.w3.org/2000/svg">
<path d="M26.6663 22.0003V9.00025C26.6663 4.19675 22.7988 0.288086 18.0452 0.288086C17.8927 0.289002 17.7408 0.307173 17.5923 0.342253C15.3677 0.45011 13.2697 1.40902 11.7323 3.02058C10.195 4.63214 9.33595 6.77302 9.33301 9.00025V22.0003C9.33301 26.7799 13.22 30.6669 17.9997 30.6669C22.7793 30.6669 26.6663 26.7799 26.6663 22.0003ZM13.6663 22.0003V9.00025C13.6663 6.61042 15.6098 4.66692 17.9997 4.66692C18.1181 4.66696 18.2364 4.65608 18.3528 4.63442C20.5737 4.79692 22.333 6.69275 22.333 9.00025V22.0003C22.333 24.3901 20.3895 26.3336 17.9997 26.3336C15.6098 26.3336 13.6663 24.3901 13.6663 22.0003Z" fill="white"/>
<path d="M5.03838 23C4.99631 22.4493 4.55261 22 4.00032 22H1.66699C1.11471 22 0.663982 22.4488 0.695539 23.0002C1.15736 31.0696 7.17096 37.6657 14.9612 39.0515C15.4575 39.1398 15.8337 39.562 15.8337 40.066V42.6667C15.8337 43.219 16.2814 43.6667 16.8337 43.6667H19.167C19.7193 43.6667 20.167 43.219 20.167 42.6667V40.066C20.167 39.562 20.5432 39.1398 21.0394 39.0515C28.8298 37.6658 34.8434 31.0714 35.3051 23.0002C35.3367 22.4488 34.8859 22 34.3337 22H32.0003C31.448 22 31.0043 22.4493 30.9623 23C30.4502 29.7038 24.8334 35 18.0003 35C11.1672 35 5.55046 29.7038 5.03838 23Z" fill="white"/>
</svg>
