<svg width="24" height="24" viewBox="0 0 24 24" fill="none" xmlns="http://www.w3.org/2000/svg">
<path d="M9.31193 10.8479L11.6159 21.5039C11.7119 21.9839 12.1919 22.3679 12.6719 22.4639C13.1519 22.5599 13.7279 22.2719 14.0159 21.7919L15.3599 19.2959L19.1039 23.0399C19.5839 23.5199 20.4479 23.5199 20.9279 23.0399L23.2319 20.7359C23.7119 20.2559 23.7119 19.3919 23.2319 18.9119L19.3919 15.3599L21.7919 14.0159C22.2719 13.7279 22.5599 13.2479 22.4639 12.6719C22.3679 12.0959 21.9839 11.7119 21.5039 11.6159L10.8479 9.40793C9.98393 9.21593 9.11993 10.0799 9.31193 10.8479ZM10.5599 5.37593C11.1359 5.37593 11.5199 4.89593 11.5199 4.41593V1.53593C11.5199 0.959928 11.0399 0.575928 10.5599 0.575928C9.98393 0.575928 9.59993 1.05593 9.59993 1.53593V4.41593C9.59993 4.89593 9.98393 5.37593 10.5599 5.37593ZM7.00793 5.47193L4.89593 3.45593C4.51193 2.97593 3.83993 2.97593 3.45593 3.45593C3.07193 3.83993 3.07193 4.41593 3.45593 4.79993L5.47193 6.81593C5.85593 7.19993 6.52793 7.19993 6.91193 6.81593C7.39193 6.52793 7.39193 5.85593 7.00793 5.47193ZM0.575928 10.4639C0.575928 11.0399 1.05593 11.4239 1.53593 11.4239H4.41593C4.99193 11.4239 5.37593 10.9439 5.37593 10.4639C5.37593 9.98393 4.89593 9.50393 4.41593 9.50393H1.53593C0.959928 9.50393 0.575928 9.98393 0.575928 10.4639ZM5.56793 14.1119L3.55193 16.1279C3.16793 16.5119 3.16793 17.1839 3.55193 17.5679C3.93593 17.9519 4.60793 17.9519 4.99193 17.5679L7.00793 15.5519C7.39193 15.1679 7.39193 14.4959 7.00793 14.1119C6.52793 13.7279 5.95193 13.7279 5.56793 14.1119ZM15.6479 6.91193L17.6639 4.79993C18.0479 4.41593 18.0479 3.74393 17.6639 3.35993C17.2799 2.97593 16.6079 2.97593 16.2239 3.35993L14.2079 5.37593C13.8239 5.75993 13.8239 6.43193 14.2079 6.81593C14.5919 7.29593 15.2639 7.29593 15.6479 6.91193Z" fill="white"/>
</svg>
