<svg width="28" height="23" viewBox="0 0 28 23" fill="none" xmlns="http://www.w3.org/2000/svg">
<path fill-rule="evenodd" clip-rule="evenodd" d="M11.4913 2.38732e-06C11.2252 -3.02924e-05 10.976 -6.0996e-05 10.7678 0.0242429C10.5361 0.0512884 10.2925 0.113922 10.0678 0.28208C9.84302 0.450238 9.71419 0.666281 9.62286 0.880939C9.5408 1.07383 9.47051 1.31292 9.39548 1.56812L8.75668 3.74007H7.1769L6.78045 2.81503C6.65302 2.51769 6.36066 2.32491 6.03717 2.32491H1.13973C0.81624 2.32491 0.523877 2.51769 0.396448 2.81503L0.163461 3.35866C0.0556113 3.61031 0 3.88125 0 4.15503V20.8125C0 21.0863 0.0556114 21.3572 0.163461 21.6088L0.396449 22.1525C0.523877 22.4498 0.81624 22.6426 1.13973 22.6426H6.03717C6.36066 22.6426 6.65302 22.4498 6.78045 22.1525L7.1769 21.2274H20.8231L21.2196 22.1525C21.347 22.4498 21.6393 22.6426 21.9628 22.6426H26.8603C27.1838 22.6426 27.4761 22.4498 27.6036 22.1525L27.8365 21.6088C27.9444 21.3572 28 21.0863 28 20.8125V4.15503C28 3.88125 27.9444 3.61031 27.8365 3.35866L27.6036 2.81503C27.4761 2.51769 27.1838 2.32491 26.8603 2.32491H21.9628C21.6393 2.32491 21.347 2.51769 21.2196 2.81503L20.8231 3.74007H19.2434L18.6046 1.56816C18.5296 1.31296 18.4593 1.07383 18.3772 0.880939C18.2859 0.66628 18.157 0.450238 17.9323 0.28208C17.7076 0.113922 17.464 0.0512884 17.2323 0.0242429C17.024 -6.0996e-05 16.7748 -3.02924e-05 16.5088 2.38732e-06H11.4913ZM17.979 3.74007L17.4492 1.93861C17.3629 1.64532 17.312 1.47566 17.261 1.35581C17.238 1.30167 17.2218 1.27488 17.213 1.2625C17.209 1.25679 17.2063 1.25393 17.2063 1.25393L17.2048 1.2528C17.2048 1.2528 17.2013 1.25101 17.1947 1.24876C17.1803 1.24389 17.1501 1.23588 17.0916 1.22906C16.9623 1.21396 16.7851 1.213 16.4794 1.213H11.5206C11.2149 1.213 11.0378 1.21396 10.9084 1.22906C10.85 1.23588 10.8197 1.24389 10.8054 1.24876C10.7988 1.25101 10.7953 1.2528 10.7953 1.2528L10.7938 1.25393C10.7938 1.25393 10.791 1.25679 10.787 1.2625C10.7783 1.27488 10.7621 1.30167 10.739 1.35581C10.6881 1.47566 10.6372 1.64532 10.5509 1.93861L10.0211 3.74007H17.979ZM7 7.68231C7 7.58831 7 7.5413 7.01033 7.50274C7.03837 7.39809 7.12011 7.31635 7.22476 7.28831C7.3263 7.2611 8.1737 7.2611 8.27524 7.28831C8.37989 7.31635 8.46163 7.39809 8.48967 7.50274C8.5 7.5413 8.5 7.58831 8.5 7.68231V17.3863C8.5 17.4803 8.5 17.5273 8.48967 17.5659C8.46163 17.6705 8.37989 17.7522 8.27524 17.7803C8.1737 17.8075 7.3263 17.8075 7.22476 17.7803C7.12011 17.7522 7.03837 17.6705 7.01033 17.5659C7 17.5273 7 17.4803 7 17.3863V7.68231ZM19.5 7.68231C19.5 7.58831 19.5 7.5413 19.5103 7.50274C19.5384 7.39809 19.6201 7.31635 19.7248 7.28831C19.8263 7.2611 20.6737 7.2611 20.7752 7.28831C20.8799 7.31635 20.9616 7.39809 20.9897 7.50274C21 7.5413 21 7.58831 21 7.68231V17.3863C21 17.4803 21 17.5273 20.9897 17.5659C20.9616 17.6705 20.8799 17.7522 20.7752 17.7803C20.6737 17.8075 19.8263 17.8075 19.7248 17.7803C19.6201 17.7522 19.5384 17.6705 19.5103 17.5659C19.5 17.5273 19.5 17.4803 19.5 17.3863V7.68231Z" fill="white"/>
</svg>
