<svg width="20" height="24" viewBox="0 0 20 24" fill="none" xmlns="http://www.w3.org/2000/svg">
<path d="M19.379 16.913C18.633 16.2837 18.0336 15.4989 17.6226 14.6136C17.2117 13.7284 16.9992 12.764 17 11.788V9C17 5.481 14.386 2.568 11 2.08V1C11 0.734784 10.8946 0.48043 10.7071 0.292893C10.5196 0.105357 10.2652 0 9.99999 0C9.73477 0 9.48042 0.105357 9.29288 0.292893C9.10535 0.48043 8.99999 0.734784 8.99999 1V2.08C5.61299 2.568 2.99999 5.481 2.99999 9V11.788C3.00037 12.766 2.78682 13.7322 2.3743 14.6189C1.96178 15.5056 1.36029 16.2913 0.611988 16.921C0.341548 17.1541 0.148792 17.4643 0.0595338 17.81C-0.0297245 18.1557 -0.0112235 18.5205 0.112559 18.8554C0.236342 19.1903 0.459496 19.4794 0.752138 19.684C1.04478 19.8885 1.39294 19.9988 1.74999 20H18.25C19.215 20 20 19.215 20 18.25C20 17.738 19.777 17.254 19.379 16.913ZM9.99999 24C10.864 23.9988 11.7012 23.6998 12.3705 23.1533C13.0397 22.6068 13.5001 21.8463 13.674 21H6.32599C6.4999 21.8463 6.96028 22.6068 7.62953 23.1533C8.29877 23.6998 9.13597 23.9988 9.99999 24Z" fill="white"/>
</svg>
