<svg width="28" height="28" viewBox="0 0 28 28" fill="none" xmlns="http://www.w3.org/2000/svg">
<path fill-rule="evenodd" clip-rule="evenodd" d="M6.22202 2.35943C8.52431 0.821086 11.2311 0 14 0C17.7118 0.00407623 21.2704 1.48038 23.895 4.10501C26.5196 6.72963 27.9959 10.2882 28 14C28 16.7689 27.1789 19.4757 25.6406 21.778C24.1022 24.0803 21.9157 25.8747 19.3576 26.9343C16.7994 27.9939 13.9845 28.2712 11.2687 27.731C8.55301 27.1908 6.05845 25.8574 4.10051 23.8995C2.14258 21.9416 0.809205 19.447 0.269012 16.7313C-0.271181 14.0155 0.00606602 11.2006 1.06569 8.64243C2.12532 6.08427 3.91973 3.89776 6.22202 2.35943ZM17.8542 19.173L12.2542 16.373C12.0215 16.2567 11.8258 16.0779 11.689 15.8565C11.5523 15.6352 11.4799 15.3802 11.48 15.12V8.12C11.48 7.7487 11.6275 7.3926 11.89 7.13005C12.1526 6.8675 12.5087 6.72 12.88 6.72C13.2513 6.72 13.6074 6.8675 13.8699 7.13005C14.1325 7.3926 14.28 7.7487 14.28 8.12V14.2548L19.1058 16.667C19.4381 16.833 19.6909 17.1242 19.8085 17.4765C19.9261 17.8288 19.899 18.2135 19.733 18.5458C19.567 18.8781 19.2758 19.1309 18.9235 19.2485C18.5712 19.3661 18.1865 19.339 17.8542 19.173Z" fill="black"/>
<path fill-rule="evenodd" clip-rule="evenodd" d="M6.22202 2.35943C8.52431 0.821086 11.2311 0 14 0C17.7118 0.00407623 21.2704 1.48038 23.895 4.10501C26.5196 6.72963 27.9959 10.2882 28 14C28 16.7689 27.1789 19.4757 25.6406 21.778C24.1022 24.0803 21.9157 25.8747 19.3576 26.9343C16.7994 27.9939 13.9845 28.2712 11.2687 27.731C8.55301 27.1908 6.05845 25.8574 4.10051 23.8995C2.14258 21.9416 0.809205 19.447 0.269012 16.7313C-0.271181 14.0155 0.00606602 11.2006 1.06569 8.64243C2.12532 6.08427 3.91973 3.89776 6.22202 2.35943ZM17.8542 19.173L12.2542 16.373C12.0215 16.2567 11.8258 16.0779 11.689 15.8565C11.5523 15.6352 11.4799 15.3802 11.48 15.12V8.12C11.48 7.7487 11.6275 7.3926 11.89 7.13005C12.1526 6.8675 12.5087 6.72 12.88 6.72C13.2513 6.72 13.6074 6.8675 13.8699 7.13005C14.1325 7.3926 14.28 7.7487 14.28 8.12V14.2548L19.1058 16.667C19.4381 16.833 19.6909 17.1242 19.8085 17.4765C19.9261 17.8288 19.899 18.2135 19.733 18.5458C19.567 18.8781 19.2758 19.1309 18.9235 19.2485C18.5712 19.3661 18.1865 19.339 17.8542 19.173Z" fill="white"/>
</svg>
