<svg width="16" height="16" viewBox="0 0 16 16" fill="none" xmlns="http://www.w3.org/2000/svg">
<path opacity="0.6" fill-rule="evenodd" clip-rule="evenodd" d="M1.06864 12.2351C0.37081 12.9061 0.349082 14.0158 1.02011 14.7136C1.69113 15.4115 2.8008 15.4332 3.49862 14.7622L7.9982 10.4354L12.5014 14.7657C13.1993 15.4367 14.3089 15.415 14.98 14.7171C15.651 14.0193 15.6293 12.9097 14.9314 12.2386L10.5272 8.00355L14.9346 3.76546C15.6324 3.09444 15.6541 1.98477 14.9831 1.28695C14.3121 0.58912 13.2024 0.567391 12.5046 1.23841L7.9982 5.5717L3.4955 1.24193C2.79767 0.570906 1.688 0.592635 1.01698 1.29046C0.345956 1.98829 0.367684 3.09796 1.06551 3.76898L5.46922 8.00355L1.06864 12.2351Z" fill="white"/>
</svg>
