<svg width="24" height="22" viewBox="0 0 24 22" fill="none" xmlns="http://www.w3.org/2000/svg">
<path d="M6.23155 10.9777C6.23155 9.67589 6.68183 8.57469 7.58241 7.67411C8.4919 6.76462 9.5931 6.30987 10.886 6.30987C12.1878 6.30987 13.289 6.76462 14.1896 7.67411C14.8678 8.34564 15.2931 9.12872 15.4656 10.0233C15.5874 9.91606 15.7133 9.81337 15.8432 9.71539L15.8478 9.71195L15.8524 9.70855C16.3219 9.36018 16.8933 9.08977 17.5108 8.87047L17.5148 8.86904C18.2258 8.61889 18.9726 8.49914 19.7449 8.49914C20.3454 8.49914 20.9231 8.56536 21.4692 8.70515C21.0459 6.87573 20.0862 5.24806 18.5899 3.82215C16.5124 1.82483 13.9489 0.826172 10.8994 0.826172C7.84991 0.826172 5.28193 1.82483 3.19545 3.82215C1.11788 5.81054 0.0791016 8.19127 0.0791016 10.9643C0.0791016 13.7374 1.11788 16.1226 3.19545 18.1199C5.28193 20.1083 7.84991 21.1025 10.8994 21.1025C11.9784 21.1025 12.9965 20.978 13.9538 20.7291C13.9798 20.0169 14.0818 19.3339 14.269 18.6865C14.4755 17.9729 14.7552 17.3176 15.1339 16.7566L15.1374 16.7514L15.141 16.7462C15.4712 16.2659 15.8403 15.8281 16.2498 15.4372C16.4454 15.2504 16.645 15.0743 16.8479 14.9108L14.5434 13.88C14.4343 14.0131 14.3164 14.1424 14.1896 14.2679C13.289 15.1685 12.1878 15.6188 10.886 15.6188C9.5931 15.6188 8.4919 15.1685 7.58241 14.2679C6.68183 13.3674 6.23155 12.2706 6.23155 10.9777Z" fill="#00D1FF"/>
<path fill-rule="evenodd" clip-rule="evenodd" d="M23.846 21.102H15.4097C15.4097 20.3719 15.4978 19.7022 15.674 19.0929C15.8503 18.4837 16.0743 17.9777 16.3462 17.5749C16.6231 17.172 16.9278 16.812 17.2601 16.4948C17.5975 16.1726 17.9348 15.9007 18.2722 15.6791C18.6145 15.4576 18.9217 15.2537 19.1936 15.0674C19.4655 14.8811 19.6895 14.6948 19.8658 14.5085C20.042 14.3171 20.1301 14.1182 20.1301 13.9118C20.1301 13.7154 20.0521 13.5518 19.896 13.4209C19.7449 13.2849 19.5385 13.217 19.2767 13.217C19.0702 13.217 18.8764 13.2749 18.6951 13.3907C18.5189 13.5014 18.393 13.6172 18.3175 13.7381L18.1966 13.9118L15.2586 12.5976C15.2888 12.5271 15.3367 12.4315 15.4021 12.3106C15.4726 12.1898 15.6337 11.9808 15.8855 11.6838C16.1373 11.3816 16.4167 11.1148 16.7239 10.8832C17.036 10.6516 17.4615 10.4401 18.0003 10.2487C18.5441 10.0574 19.1256 9.96174 19.7449 9.96174C20.9936 9.96174 22.0007 10.3066 22.766 10.9965C23.5364 11.6812 23.9216 12.5221 23.9216 13.5191C23.9216 14.0125 23.8309 14.4631 23.6497 14.871C23.4684 15.2738 23.2267 15.6112 22.9246 15.8831C22.6275 16.155 22.328 16.3966 22.0258 16.6081C21.7237 16.8196 21.409 17.0336 21.0818 17.2501C20.7595 17.4666 20.5203 17.668 20.3643 17.8543H23.846V21.102Z" fill="#00D1FF"/>
</svg>
