<svg width="42" height="44" viewBox="0 0 42 44" fill="none" xmlns="http://www.w3.org/2000/svg">
<path fill-rule="evenodd" clip-rule="evenodd" d="M9.94718 39.1352C9.91831 39.2837 9.91953 39.4306 9.95076 39.5677C9.982 39.7048 10.0426 39.8294 10.1292 39.9343C10.2158 40.0391 10.3266 40.1223 10.4553 40.179C10.5841 40.2356 10.7281 40.2647 10.8794 40.2645H24.0239C24.3293 40.2645 24.6453 40.1454 24.9025 39.9335C25.1597 39.7215 25.3369 39.4339 25.3951 39.1342C25.4534 38.8344 25.388 38.5468 25.2132 38.3349C25.0385 38.1229 24.7687 38.0038 24.4633 38.0038H11.3188C11.1675 38.0038 11.012 38.0331 10.8612 38.09C10.7103 38.1469 10.5671 38.2303 10.4398 38.3353C10.3124 38.4404 10.2033 38.5651 10.1188 38.7024C10.0343 38.8396 9.97597 38.9867 9.94718 39.1352ZM8.69484 2.68829C8.80689 2.11358 9.14669 1.56249 9.63962 1.15604C10.1326 0.749596 10.7383 0.521019 11.3239 0.520508L16.4696 0.520508L16.9739 4.21395C17.0053 4.44072 17.1135 4.63825 17.283 4.77829C17.4525 4.91833 17.6747 4.99369 17.9178 4.9936H30.6975C30.9405 4.99368 31.1919 4.91832 31.4159 4.77831C31.6399 4.63829 31.8249 4.44079 31.9445 4.21404L33.8839 0.520508H39.0307C39.616 0.521174 40.1328 0.749809 40.4676 1.15623C40.8025 1.56265 40.928 2.11365 40.8168 2.68829L33.3086 41.3145C33.1961 41.8888 32.8562 42.4394 32.3634 42.8454C31.8707 43.2513 31.2654 43.4797 30.6802 43.4802H2.97337C2.3883 43.4798 1.87158 43.2516 1.5366 42.8456C1.20163 42.4395 1.07578 41.8889 1.18666 41.3145L8.69484 2.68829ZM31.4628 0.520508H18.8915L19.1937 2.73285H30.3007L31.4628 0.520508Z" fill="white"/>
</svg>
