<svg width="42" height="42" viewBox="0 0 42 42" fill="none" xmlns="http://www.w3.org/2000/svg">
<g clip-path="url(#clip0_1_1215)">
<path d="M17.8986 10.4035C19.144 10.0372 20.4627 9.85286 21.8319 9.95596C22.5936 10.0133 23.3317 10.1469 24.0392 10.3485L27.7846 1.15224C26.1339 0.585537 24.3968 0.195203 22.5772 0.058192C19.3226 -0.186863 16.194 0.352406 13.3458 1.48048L17.8986 10.4035Z" fill="white"/>
<path d="M28.3327 29.2534C27.3633 30.1167 26.2498 30.8469 24.9678 31.3387C24.2547 31.6123 23.5303 31.807 22.8045 31.927L23.3478 41.8418C25.0824 41.6488 26.8197 41.2595 28.5234 40.6058C31.5706 39.4367 34.1687 37.6122 36.2618 35.3753L28.3327 29.2534Z" fill="white"/>
<path d="M18.9857 31.8541C17.7091 31.6187 16.4492 31.188 15.2739 30.4779C14.6202 30.0829 14.0218 29.6306 13.4815 29.1313L5.98828 35.6467C7.20546 36.8975 8.57928 38.0299 10.1411 38.9735C12.9347 40.6613 15.9698 41.5923 19.0206 41.8714L18.9857 31.8541Z" fill="white"/>
<path d="M27.4074 12.0102C28.4652 12.7628 29.4252 13.6854 30.1906 14.8254C30.6163 15.4595 30.9676 16.1223 31.2464 16.8031L40.7905 14.0625C40.2155 12.4146 39.4486 10.8079 38.4315 9.29287C36.6123 6.58312 34.2544 4.45721 31.607 2.91565L27.4074 12.0102Z" fill="white"/>
<path d="M10.735 16.9422C11.2106 15.7343 11.8747 14.5803 12.7967 13.5628C13.3096 12.9968 13.8683 12.4962 14.4618 12.0616L9.50249 3.45896C8.04168 4.41398 6.66708 5.54543 5.44173 6.8976C3.25009 9.31607 1.75488 12.1167 0.896558 15.0575L10.735 16.9422Z" fill="white"/>
<path d="M32.0192 20.1896C32.1155 21.4842 32.0186 22.8122 31.6299 24.1291C31.4138 24.8617 31.1281 25.5553 30.7822 26.2046L38.9857 31.7994C39.8868 30.3046 40.6335 28.6884 41.1499 26.9383C42.0736 23.8079 42.204 20.6358 41.6999 17.6141L32.0192 20.1896Z" fill="white"/>
<path d="M11.3659 26.3861C10.7314 25.2536 10.2578 24.0091 10.0532 22.6513C9.93944 21.8961 9.90518 21.1467 9.94414 20.4121L0.144497 18.8099C-0.0401545 20.5454 -0.033633 22.3258 0.238244 24.1302C0.724518 27.3576 1.94733 30.2874 3.68169 32.8126L11.3659 26.3861Z" fill="white"/>
</g>
<defs>
<clipPath id="clip0_1_1215">
<rect width="42" height="42" fill="white"/>
</clipPath>
</defs>
</svg>
