<svg width="20" height="23" viewBox="0 0 20 23" fill="none" xmlns="http://www.w3.org/2000/svg">
<path d="M19.123 3.39795L10.2336 0.525094C10.0815 0.47601 9.91703 0.47601 9.76487 0.525094L0.87553 3.39795C0.728061 3.44563 0.599803 3.53709 0.50892 3.65937C0.418037 3.78165 0.369135 3.92855 0.369141 4.07926V9.83762C0.369096 18.0793 7.9357 22.5134 9.99928 22.5134C11.4798 22.5134 19.6294 18.6115 19.6294 9.83758V4.07922C19.6294 3.92851 19.5805 3.78162 19.4896 3.65934C19.3988 3.53707 19.2705 3.44563 19.123 3.39795ZM16.6663 9.83917C16.6663 16.0796 11.0947 19.432 9.99923 19.4332V3.5236C10.2203 3.52403 15.9496 5.39845 16.1594 5.46603C16.3069 5.51367 16.4353 5.60512 16.5263 5.72744C16.6172 5.84975 16.6662 5.99672 16.6662 6.14751L16.6663 9.83917Z" fill="#A2A2A2"/>
</svg>
