<svg width="40" height="40" viewBox="0 0 40 40" fill="none" xmlns="http://www.w3.org/2000/svg">
<path d="M20 0.21875C9.0928 0.21875 0.21875 9.0928 0.21875 20C0.21875 30.9072 9.0928 39.7812 20 39.7812C30.9072 39.7812 39.7812 30.9072 39.7812 20C39.7812 9.0928 30.9072 0.21875 20 0.21875ZM20 34.8359C11.8198 34.8359 5.16406 28.1802 5.16406 20C5.16406 16.8778 6.11063 13.9262 7.91041 11.4077L28.5923 32.0896C26.0738 33.8894 23.1222 34.8359 20 34.8359ZM32.0896 28.5923L11.4077 7.91041C13.9262 6.11063 16.8778 5.16406 20 5.16406C28.1802 5.16406 34.8359 11.8198 34.8359 20C34.8359 23.1222 33.8894 26.0738 32.0896 28.5923Z" fill="white"/>
</svg>
