<svg width="32" height="37" viewBox="0 0 32 37" fill="none" xmlns="http://www.w3.org/2000/svg">
<path d="M30.5352 3.35007L22.1493 2.33977L21.4924 1.03295C21.3532 0.753568 21.1389 0.518561 20.8734 0.354365C20.608 0.19017 20.302 0.103299 19.9899 0.103528H12.0024C11.691 0.102326 11.3855 0.188872 11.121 0.353251C10.8566 0.51763 10.6437 0.753191 10.5069 1.03295L9.85001 2.33977L1.46407 3.35007C0.846579 3.35007 0.345947 3.8507 0.345947 4.46819V6.70443C0.345947 7.32192 0.846579 7.82255 1.46407 7.82255H30.5352C31.1527 7.82255 31.6533 7.32192 31.6533 6.70443V4.46819C31.6533 3.8507 31.1527 3.35007 30.5352 3.35007ZM4.06369 33.749C4.17439 35.5165 5.64008 36.8935 7.41104 36.8937H24.5882C26.3592 36.8935 27.825 35.5165 27.9356 33.749L29.4171 11.0691H2.58219L4.06369 33.749Z" fill="white"/>
</svg>
