<svg width="37" height="36" viewBox="0 0 37 36" fill="none" xmlns="http://www.w3.org/2000/svg">
<path d="M36.0581 29.122C36.0581 29.7575 35.9169 30.4107 35.6168 31.0461C35.3168 31.6816 34.9284 32.2818 34.4165 32.8467C33.5515 33.7999 32.5983 34.4883 31.5215 34.9296C30.4624 35.3709 29.315 35.6004 28.0794 35.6004C26.2788 35.6004 24.3548 35.1767 22.3248 34.3118C20.2948 33.4468 18.2648 32.2818 16.2524 30.8167C14.2014 29.3164 12.266 27.6642 10.4625 25.874C8.67746 24.0771 7.03109 22.1475 5.53754 20.1018C4.09007 18.0894 2.92502 16.0771 2.07772 14.0824C1.23041 12.0701 0.806763 10.146 0.806763 8.31014C0.806763 7.10979 1.01859 5.9624 1.44224 4.90327C1.86589 3.82649 2.53668 2.83796 3.47224 1.95536C4.60198 0.843269 5.83763 0.296051 7.14389 0.296051C7.63815 0.296051 8.13241 0.401964 8.57372 0.61379C9.03268 0.825616 9.43867 1.14336 9.75641 1.60231L13.8517 7.37457C14.1695 7.81588 14.3989 8.22188 14.5578 8.61022C14.7167 8.98092 14.8049 9.35162 14.8049 9.68701C14.8049 10.1107 14.6814 10.5343 14.4342 10.9403C14.2048 11.3463 13.8694 11.77 13.4457 12.1936L12.1042 13.5881C11.91 13.7823 11.8217 14.0118 11.8217 14.2942C11.8217 14.4354 11.8394 14.559 11.8747 14.7002C11.9276 14.8414 11.9806 14.9474 12.0159 15.0533C12.3336 15.6358 12.8808 16.3948 13.6575 17.3127C14.4519 18.2307 15.2992 19.1662 16.2171 20.1018C17.1703 21.0374 18.0882 21.9023 19.0238 22.6967C19.9417 23.4734 20.7008 24.0029 21.3009 24.3207C21.3892 24.356 21.4951 24.4089 21.6187 24.4619C21.7599 24.5148 21.9011 24.5325 22.06 24.5325C22.3601 24.5325 22.5895 24.4266 22.7837 24.2324L24.1253 22.9085C24.5666 22.4672 24.9902 22.1318 25.3962 21.92C25.8022 21.6728 26.2082 21.5493 26.6495 21.5493C26.9849 21.5493 27.338 21.6199 27.7263 21.7787C28.1147 21.9376 28.5207 22.1671 28.962 22.4672L34.8048 26.6154C35.2638 26.9332 35.5815 27.3039 35.7757 27.7452C35.9522 28.1865 36.0581 28.6278 36.0581 29.122Z" fill="white"/>
</svg>
