<svg width="34" height="34" viewBox="0 0 34 34" fill="none" xmlns="http://www.w3.org/2000/svg">
<path d="M10.2765 27.0792C8.42914 27.0792 6.93449 28.5912 6.93449 30.4392C6.93449 32.2872 8.42914 33.7992 10.2765 33.7992C12.1238 33.7992 13.6352 32.2872 13.6352 30.4392C13.6352 28.5912 12.1238 27.0792 10.2765 27.0792ZM0.200195 1.87922C0.200195 2.80322 0.955915 3.55922 1.87957 3.55922H3.55895L9.6047 16.3104L7.33754 20.4096C6.1116 22.6608 7.7238 25.3992 10.2765 25.3992H28.7496C29.6732 25.3992 30.429 24.6432 30.429 23.7192C30.429 22.7952 29.6732 22.0392 28.7496 22.0392H10.2765L12.1238 18.6792H24.6351C25.8947 18.6792 27.003 17.9904 27.574 16.9488L33.5862 6.04562C34.2076 4.93682 33.4015 3.55922 32.1251 3.55922H7.27037L6.14519 1.15682C5.87649 0.568819 5.27191 0.199219 4.63375 0.199219H1.87957C0.955915 0.199219 0.200195 0.955219 0.200195 1.87922ZM27.0702 27.0792C25.2229 27.0792 23.7283 28.5912 23.7283 30.4392C23.7283 32.2872 25.2229 33.7992 27.0702 33.7992C28.9175 33.7992 30.429 32.2872 30.429 30.4392C30.429 28.5912 28.9175 27.0792 27.0702 27.0792Z" fill="white"/>
</svg>
