<svg width="41" height="41" viewBox="0 0 41 41" fill="none" xmlns="http://www.w3.org/2000/svg">
<path fill-rule="evenodd" clip-rule="evenodd" d="M0.313477 20.8477C0.313477 9.82016 9.28598 0.847656 20.3135 0.847656C31.341 0.847656 40.3135 9.82016 40.3135 20.8477C40.3135 31.8752 31.341 40.8477 20.3135 40.8477C16.4685 40.8477 12.776 39.7702 9.59348 37.7277L2.02848 40.7577C1.87598 40.8177 1.72098 40.8477 1.56348 40.8477C1.23258 40.8477 0.915202 40.7164 0.680977 40.4827C0.507754 40.3094 0.389139 40.0892 0.339815 39.8493C0.290491 39.6093 0.312625 39.3602 0.403477 39.1327L3.43348 31.5677C1.39098 28.3852 0.313477 24.6927 0.313477 20.8477ZM29.1294 18.3148C29.8345 17.6538 29.8702 16.5463 29.2092 15.8412C28.5482 15.1361 27.4407 15.1004 26.7356 15.7614L17.7738 24.1632L13.8913 20.5233C13.1862 19.8623 12.0788 19.898 11.4177 20.6031C10.7567 21.3082 10.7924 22.4157 11.4975 23.0767L16.5769 27.8386C17.25 28.4697 18.2975 28.4697 18.9707 27.8386L29.1294 18.3148Z" fill="white"/>
</svg>
