<svg width="41" height="41" viewBox="0 0 41 41" fill="none" xmlns="http://www.w3.org/2000/svg">
<path fill-rule="evenodd" clip-rule="evenodd" d="M0.797852 20.8477C0.797852 9.82016 9.77035 0.847656 20.7979 0.847656C31.8254 0.847656 40.7979 9.82016 40.7979 20.8477C40.7979 31.8752 31.8254 40.8477 20.7979 40.8477C16.9529 40.8477 13.2604 39.7702 10.0779 37.7277L2.51285 40.7577C2.36035 40.8177 2.20535 40.8477 2.04785 40.8477C1.71696 40.8477 1.39958 40.7164 1.16535 40.4827C0.992129 40.3094 0.873514 40.0892 0.82419 39.8493C0.774866 39.6093 0.797 39.3602 0.887852 39.1327L3.91785 31.5677C1.87535 28.3852 0.797852 24.6927 0.797852 20.8477ZM15.7473 13.8472C15.0422 13.1862 13.9348 13.2219 13.2737 13.9269C12.6126 14.632 12.6483 15.7395 13.3534 16.4005L18.0051 20.7618L13.3529 25.1232C12.6478 25.7843 12.6121 26.8917 13.2731 27.5968C13.9341 28.3019 15.0416 28.3377 15.7467 27.6766L20.5638 23.1606L25.3813 27.6767C26.0864 28.3377 27.1939 28.3019 27.8549 27.5968C28.5159 26.8916 28.4801 25.7842 27.775 25.1232L23.1225 20.7618L27.7745 16.4006C28.4796 15.7395 28.5153 14.6321 27.8543 13.927C27.1933 13.2219 26.0858 13.1862 25.3807 13.8472L20.5638 18.3631L15.7473 13.8472Z" fill="white"/>
</svg>
