<svg width="46" height="47" viewBox="0 0 46 47" fill="none" xmlns="http://www.w3.org/2000/svg">
<path fill-rule="evenodd" clip-rule="evenodd" d="M37.4577 40.3445C37.0577 40.7445 36.8577 40.9445 36.6092 40.9445C36.3607 40.9445 36.1607 40.7445 35.7607 40.3445L1.98061 6.56447C1.58061 6.16447 1.38061 5.96447 1.38061 5.71594C1.38061 5.46741 1.58061 5.26741 1.98061 4.86741L2.11912 4.7289C2.51912 4.3289 2.71912 4.1289 2.96765 4.1289C3.21618 4.1289 3.41618 4.3289 3.81618 4.7289L37.5962 38.509C37.9962 38.909 38.1962 39.109 38.1962 39.3575C38.1962 39.606 37.9962 39.806 37.5962 40.206L37.4577 40.3445Z" fill="#BBFFC2"/>
<path fill-rule="evenodd" clip-rule="evenodd" d="M24.1696 13.9285L25.5843 15.8642C25.6655 15.9752 25.6992 16.114 25.678 16.2499C25.6569 16.3858 25.5826 16.5077 25.4716 16.5889L19.1239 21.2267L16.4986 18.6046L23.1217 13.7655C23.2012 13.7073 23.2914 13.6654 23.3871 13.6421C23.4828 13.6188 23.5821 13.6146 23.6795 13.6298C23.7768 13.6449 23.8701 13.6791 23.9542 13.7304C24.0383 13.7816 24.1115 13.8489 24.1696 13.9285ZM13.5929 20.7276L1.85429 29.3042C0.902014 29.9997 0.277814 31.025 0.0969512 32.19C-0.0201145 32.9415 0.0564596 33.6929 0.311917 34.3871C0.396949 34.6182 0.68309 34.7001 0.881858 34.5549L16.2181 23.3498L13.5929 20.7276ZM16.7508 23.8818L1.57489 34.9707C1.49807 35.0269 1.44667 35.1112 1.43201 35.2052C1.41735 35.2992 1.44062 35.3952 1.4967 35.4721C1.90162 36.0255 2.49369 36.3908 3.16495 36.5015C3.84161 36.6131 4.51647 36.4529 5.06626 36.0507C5.32451 35.8626 5.65024 35.8149 5.95888 35.9202C6.28281 36.0309 6.52396 36.2837 6.62024 36.6149L8.97775 44.7573C9.05814 45.0341 9.20394 45.2874 9.40283 45.496C9.60172 45.7046 9.84787 45.8623 10.1205 45.9558C10.3068 46.0188 10.4993 46.0503 10.691 46.0503C11.0581 46.0503 11.4207 45.936 11.7231 45.7147L15.514 42.9451C16.107 42.5113 16.367 41.742 16.161 41.0302L14.2481 34.427L17.5235 32.0338C18.2228 31.5228 18.641 30.7292 18.6707 29.8565C18.701 28.9653 18.3254 28.1238 17.6401 27.5478L17.2047 27.1819L18.8507 25.9793L16.7508 23.8818ZM21.7565 23.8563L26.8552 20.1313C27.1765 19.8964 27.2467 19.4456 27.0118 19.1253L25.9999 17.7402C25.9613 17.6874 25.9127 17.6427 25.8569 17.6087C25.8011 17.5747 25.7391 17.552 25.6745 17.542C25.6099 17.5319 25.5439 17.5347 25.4804 17.5501C25.4169 17.5656 25.357 17.5934 25.3042 17.632L19.6565 21.7587L21.7565 23.8563ZM16.6741 30.8714C17.014 30.623 17.2172 30.2353 17.2318 29.8075C17.247 29.3613 17.0582 28.9394 16.7136 28.65L16.0077 28.0565L14.4369 29.2041C14.3783 29.2473 14.3216 29.2932 14.2671 29.3415L14.9694 29.7101C15.1353 29.8005 15.2589 29.9526 15.3137 30.1334C15.3684 30.3142 15.3499 30.5093 15.2621 30.6766C15.1744 30.8438 15.0243 30.9699 14.8444 31.0276C14.6646 31.0853 14.4692 31.07 14.3005 30.9849L13.5113 30.5707C13.3924 31.0184 13.3976 31.49 13.5263 31.935L13.8219 32.9554L16.6741 30.8714ZM41.8127 0.320357L44.9267 4.58232C45.0394 4.7365 45.0862 4.92911 45.0569 5.1178C45.0275 5.30642 44.9244 5.47563 44.7703 5.58831L28.489 17.4843C28.3349 17.5969 28.1423 17.6437 27.9537 17.6144C27.765 17.585 27.5958 17.482 27.4831 17.3278L24.3692 13.0659C24.3134 12.9895 24.2732 12.903 24.2509 12.8111C24.2286 12.7193 24.2246 12.6239 24.2391 12.5305C24.2536 12.4371 24.2864 12.3474 24.3356 12.2667C24.3848 12.186 24.4494 12.1157 24.5257 12.06L40.8068 0.163789C40.8831 0.108011 40.9696 0.0678137 41.0615 0.0454944C41.1534 0.0231752 41.2487 0.0191708 41.3421 0.0337099C41.4355 0.048249 41.5252 0.0810468 41.6059 0.13023C41.6866 0.179414 41.7569 0.244019 41.8127 0.320357Z" fill="#BBFFC2"/>
</svg>
