<svg width="22" height="28" viewBox="0 0 22 28" fill="none" xmlns="http://www.w3.org/2000/svg">
<path fill-rule="evenodd" clip-rule="evenodd" d="M3.48718 3.45007C5.47987 1.45737 8.18255 0.337891 11.0006 0.337891C13.8187 0.337891 16.5214 1.45737 18.5141 3.45007C20.5068 5.44276 21.6263 8.14544 21.6263 10.9635C21.6263 19.5652 11.0006 27.661 11.0006 27.661C11.0006 27.661 0.375 19.5652 0.375 10.9635C0.375 8.14544 1.49448 5.44276 3.48718 3.45007ZM15.3685 10.9649C15.3685 8.25321 12.8089 6.15258 10.1493 6.68162C7.51489 7.20563 5.9269 10.1264 6.9665 12.6362C7.6353 14.2508 9.25365 15.3322 11.0013 15.3322C13.38 15.3322 15.3685 13.3436 15.3685 10.9649Z" fill="white"/>
</svg>
