<svg width="52" height="52" viewBox="0 0 52 52" fill="none" xmlns="http://www.w3.org/2000/svg">
<g opacity="0.5">
<path fill-rule="evenodd" clip-rule="evenodd" d="M47.9998 48.7676C48.4141 48.7676 48.7474 48.4343 49.4141 47.7676L49.7676 47.4141C50.4343 46.7474 50.7676 46.4141 50.7676 45.9998C50.7676 45.5856 50.4343 45.2523 49.7676 44.5857L49.7676 44.5856L40.5645 35.3826C42.146 32.9412 43.1294 30.0781 43.3055 27.0002C43.337 26.4488 42.8863 26 42.334 26H40.0007C39.4484 26 39.0047 26.4493 38.9626 27C38.8188 28.8823 38.2726 30.6537 37.41 32.228L34.1455 28.9635C34.4827 28.0389 34.6667 27.0412 34.6667 26.0012V13.0012C34.6667 8.19773 30.7992 4.28906 26.0455 4.28906C25.893 4.28998 25.7411 4.30815 25.5927 4.34323C23.3681 4.45109 21.27 5.41 19.7327 7.02156C18.383 8.43643 17.5561 10.2593 17.3724 12.1904L6.59605 1.41407C5.92938 0.747397 5.59604 0.414062 5.18183 0.414062C4.76762 0.414062 4.43428 0.747396 3.76762 1.41406L3.41406 1.76762C2.7474 2.43428 2.41406 2.76762 2.41406 3.18183C2.41406 3.59604 2.7474 3.92938 3.41406 4.59604L46.5856 47.7676L46.5857 47.7676C47.2523 48.4343 47.5856 48.7676 47.9998 48.7676ZM21.6667 16.4847L30.3334 25.1514V13.0012C30.3334 10.6937 28.574 8.7979 26.3532 8.6354C26.2367 8.65705 26.1185 8.66793 26 8.6679C23.6102 8.6679 21.6667 10.6114 21.6667 13.0012V16.4847ZM28.2025 34.3845L17.3334 23.5153V26.0012C17.3334 30.7809 21.2204 34.6679 26 34.6679C26.7608 34.6679 27.499 34.5694 28.2025 34.3845ZM34.758 40.94L31.5661 37.748C29.8782 38.5506 27.991 39 26.0007 39C19.1676 39 13.5508 33.7038 13.0387 27C12.9967 26.4493 12.553 26 12.0007 26H9.66735C9.11507 26 8.66434 26.4488 8.6959 27.0002C9.15772 35.0696 15.1713 41.6657 22.9616 43.0515C23.4578 43.1398 23.834 43.562 23.834 44.066V46.6667C23.834 47.219 24.2817 47.6667 24.834 47.6667H27.1674C27.7196 47.6667 28.1674 47.219 28.1674 46.6667V44.066C28.1674 43.562 28.5435 43.1398 29.0398 43.0515C31.0922 42.6865 33.0213 41.9599 34.758 40.94Z" fill="white"/>
</g>
</svg>
