<svg width="48" height="48" viewBox="0 0 48 48" fill="none" xmlns="http://www.w3.org/2000/svg">
<path d="M42.2434 15.3818C39.8372 6.67594 32.7514 0.0147188 24.019 0H23.9901C15.2313 0 8.16799 6.67678 5.75495 15.3211C5.7528 15.3288 5.75167 15.3368 5.7497 15.3445C5.63074 15.8009 5.74164 16.3163 6.05974 16.6785L13.0528 28.125H16.3487L8.8757 15.8929C11.3301 13.5279 14.8225 13.7441 17.0634 16.3719L19.4674 28.125H22.3381L19.8868 16.141C22.2405 13.6226 25.7562 13.6203 28.1122 16.1414L25.6679 28.125H28.5383L30.9355 16.3717C33.1698 13.7518 36.6715 13.5165 39.1373 15.907L31.65 28.125H34.9486L42.0051 16.6101C42.137 16.4376 42.2271 16.237 42.2684 16.0239C42.3098 15.8108 42.3012 15.591 42.2434 15.3818ZM14.155 46.5938C14.155 47.3704 14.7846 48 15.5612 48H32.4362C33.2128 48 33.8425 47.3704 33.8425 46.5938V30.9375H14.155V46.5938Z" fill="white"/>
</svg>
