<svg width="17" height="20" viewBox="0 0 17 20" fill="none" xmlns="http://www.w3.org/2000/svg">
<path fill-rule="evenodd" clip-rule="evenodd" d="M11.05 0.000732422C14.3361 0.000732422 17 2.6124 17 5.83407C17 8.94834 14.5107 11.4926 11.3765 11.6588L11.05 11.6674H6.8V13.3341H8.5C9.43888 13.3341 10.2 14.0803 10.2 15.0007C10.2 15.9212 9.43888 16.6674 8.5 16.6674H6.8V18.3341C6.8 19.2545 6.03888 20.0007 5.1 20.0007C4.16112 20.0007 3.4 19.2545 3.4 18.3341V16.6674H1.7C0.761116 16.6674 0 15.9212 0 15.0007C0 14.0803 0.761116 13.3341 1.7 13.3341H3.4V11.6674H1.7C0.761116 11.6674 0 10.9212 0 10.0007C0 9.14601 0.656269 8.44155 1.50174 8.34528L1.7 8.33407H3.4V1.6674C3.4 0.746924 4.16112 0.000732422 5.1 0.000732422H11.05ZM11.05 3.33407H6.8V8.33407H11.05C12.4583 8.33407 13.6 7.21478 13.6 5.83407C13.6 4.53457 12.5887 3.46665 11.2956 3.34551L11.05 3.33407Z" fill="white"/>
</svg>
