<svg width="36" height="35" viewBox="0 0 36 35" fill="none" xmlns="http://www.w3.org/2000/svg">
<path d="M35.9061 13.1071C35.791 12.7504 35.5734 12.4354 35.2805 12.2015C34.9876 11.9675 34.6324 11.825 34.259 11.7916L23.8684 10.848L19.7597 1.23113C19.4566 0.526371 18.7667 0.0703125 18.0002 0.0703125C17.2336 0.0703125 16.5436 0.526441 16.2407 1.23289L12.1319 10.8481L1.7397 11.7916C1.36676 11.8257 1.01205 11.9686 0.719551 12.2024C0.427047 12.4363 0.209612 12.7509 0.0942049 13.1071C-0.142825 13.8362 0.0760638 14.6357 0.653696 15.1397L8.5078 22.0277L6.19179 32.2296C6.02233 32.9797 6.31343 33.7551 6.93585 34.205C7.27034 34.4468 7.66178 34.5698 8.05645 34.5698C8.39678 34.5698 8.73428 34.478 9.03734 34.2968L18.0002 28.94L26.9597 34.2968C27.6154 34.6912 28.4418 34.6552 29.0628 34.205C29.3669 33.985 29.5995 33.6804 29.7318 33.3291C29.8641 32.9779 29.8902 32.5956 29.8069 32.2296L27.491 22.0277L35.345 15.1411C35.6275 14.8944 35.8313 14.57 35.9311 14.2084C36.0309 13.8468 36.0222 13.4639 35.9061 13.1071Z" fill="#FFC107"/>
</svg>
